<svg xmlns="http://www.w3.org/2000/svg" xmlns:xlink="http://www.w3.org/1999/xlink" version="1.1" width="256" height="256" viewBox="0 0 256 256" xml:space="preserve">
<desc>Created with Fabric.js 1.7.22</desc>
<defs>
</defs>
<g transform="translate(128 128) scale(0.72 0.72)" style="">
	<g style="stroke: none; stroke-width: 0; stroke-dasharray: none; stroke-linecap: butt; stroke-linejoin: miter; stroke-miterlimit: 10; fill: none; fill-rule: nonzero; opacity: 1;" transform="translate(-175.05 -175.05000000000004) scale(3.89 3.89)" >
	<path d="M 34.876 34.803 l 36.873 16.546 l -5.537 5.537 l -2.828 2.828 l 2.828 2.828 l 18.801 18.801 l -3.596 3.596 L 62.616 66.138 l -2.828 -2.828 l -2.828 2.828 l -5.537 5.537 L 34.876 34.803 M 29.56 28.159 c -0.899 0 -1.623 0.949 -1.206 1.878 l 21.004 46.809 c 0.228 0.508 0.718 0.786 1.216 0.786 c 0.334 0 0.673 -0.125 0.937 -0.39 l 8.276 -8.276 l 20.488 20.488 c 0.315 0.315 0.728 0.473 1.141 0.473 s 0.826 -0.158 1.142 -0.473 l 6.969 -6.969 c 0.63 -0.63 0.63 -1.653 0 -2.283 L 69.04 59.714 l 8.276 -8.276 c 0.658 -0.658 0.454 -1.772 -0.396 -2.153 L 30.111 28.28 C 29.925 28.197 29.739 28.159 29.56 28.159 L 29.56 28.159 z" style="stroke: none; stroke-width: 1; stroke-dasharray: none; stroke-linecap: butt; stroke-linejoin: miter; stroke-miterlimit: 10; fill: rgb(0,0,0); fill-rule: nonzero; opacity: 1;" transform=" matrix(1 0 0 1 0 0) " stroke-linecap="round" />
	<path d="M 22.33 24.406 c -0.512 0 -1.025 -0.196 -1.416 -0.587 l -9.962 -9.962 c -0.782 -0.782 -0.782 -2.05 0 -2.832 c 0.781 -0.782 2.051 -0.782 2.832 0 l 9.962 9.962 c 0.782 0.782 0.782 2.05 0 2.832 C 23.356 24.211 22.843 24.406 22.33 24.406 z" style="stroke: none; stroke-width: 1; stroke-dasharray: none; stroke-linecap: butt; stroke-linejoin: miter; stroke-miterlimit: 10; fill: rgb(0,0,0); fill-rule: nonzero; opacity: 1;" transform=" matrix(1 0 0 1 0 0) " stroke-linecap="round" />
	<path d="M 12.369 46.847 c -0.512 0 -1.025 -0.196 -1.416 -0.587 c -0.782 -0.782 -0.782 -2.051 0 -2.833 l 9.962 -9.961 c 0.781 -0.782 2.051 -0.782 2.832 0 c 0.782 0.782 0.782 2.05 0 2.832 l -9.962 9.962 C 13.394 46.652 12.881 46.847 12.369 46.847 z" style="stroke: none; stroke-width: 1; stroke-dasharray: none; stroke-linecap: butt; stroke-linejoin: miter; stroke-miterlimit: 10; fill: rgb(0,0,0); fill-rule: nonzero; opacity: 1;" transform=" matrix(1 0 0 1 0 0) " stroke-linecap="round" />
	<path d="M 34.809 24.406 c -0.512 0 -1.025 -0.196 -1.416 -0.587 c -0.782 -0.782 -0.782 -2.05 0 -2.832 l 9.961 -9.962 c 0.781 -0.782 2.05 -0.782 2.832 0 c 0.782 0.782 0.782 2.05 0 2.832 l -9.961 9.962 C 35.835 24.211 35.322 24.406 34.809 24.406 z" style="stroke: none; stroke-width: 1; stroke-dasharray: none; stroke-linecap: butt; stroke-linejoin: miter; stroke-miterlimit: 10; fill: rgb(0,0,0); fill-rule: nonzero; opacity: 1;" transform=" matrix(1 0 0 1 0 0) " stroke-linecap="round" />
	<path d="M 28.57 18.167 c -1.106 0 -2.003 -0.897 -2.003 -2.003 V 2.076 c 0 -1.106 0.897 -2.003 2.003 -2.003 s 2.003 0.897 2.003 2.003 v 14.088 C 30.573 17.27 29.676 18.167 28.57 18.167 z" style="stroke: none; stroke-width: 1; stroke-dasharray: none; stroke-linecap: butt; stroke-linejoin: miter; stroke-miterlimit: 10; fill: rgb(0,0,0); fill-rule: nonzero; opacity: 1;" transform=" matrix(1 0 0 1 0 0) " stroke-linecap="round" />
	<path d="M 16.091 30.646 H 2.003 C 0.897 30.646 0 29.749 0 28.643 s 0.897 -2.003 2.003 -2.003 h 14.088 c 1.106 0 2.003 0.897 2.003 2.003 S 17.197 30.646 16.091 30.646 z" style="stroke: none; stroke-width: 1; stroke-dasharray: none; stroke-linecap: butt; stroke-linejoin: miter; stroke-miterlimit: 10; fill: rgb(0,0,0); fill-rule: nonzero; opacity: 1;" transform=" matrix(1 0 0 1 0 0) " stroke-linecap="round" />
</g>
</g>
</svg>